<svg xmlns="http://www.w3.org/2000/svg" width="151.022" height="178.085" viewBox="0 0 151.022 178.085">
  <g id="certificate" transform="translate(-307.575 -94.944)">
    <g id="Group_14" data-name="Group 14" transform="translate(307.575 94.944)">
      <path id="Path_2932" data-name="Path 2932" d="M484.241,249.882c0,7.164-4.679,12.972-10.45,12.972H348.025c-5.771,0-10.45-5.808-10.45-12.972V137.916c0-7.164,4.679-12.972,10.45-12.972H473.791c5.771,0,10.45,5.808,10.45,12.972Z" transform="translate(-335.397 -122.724)" fill="#e5e5e5"/>
      <path id="Path_2933" data-name="Path 2933" d="M445.969,237.294H320.2a11.6,11.6,0,0,1-9.072-4.61,16.86,16.86,0,0,1-3.555-10.581V110.136a16.86,16.86,0,0,1,3.555-10.581,11.6,11.6,0,0,1,9.072-4.61H445.969a11.6,11.6,0,0,1,9.072,4.61,16.86,16.86,0,0,1,3.555,10.581V222.1a16.86,16.86,0,0,1-3.555,10.581A11.6,11.6,0,0,1,445.969,237.294ZM320.2,99.384a7.364,7.364,0,0,0-5.706,2.988,12.363,12.363,0,0,0-2.566,7.764V222.1a12.363,12.363,0,0,0,2.566,7.764,7.364,7.364,0,0,0,5.706,2.988H445.969a7.364,7.364,0,0,0,5.706-2.988,12.363,12.363,0,0,0,2.566-7.764V110.136a12.364,12.364,0,0,0-2.566-7.764,7.364,7.364,0,0,0-5.706-2.988Z" transform="translate(-307.575 -94.944)" fill="#2a363d"/>
    </g>
    <g id="Group_15" data-name="Group 15" transform="translate(316.463 134.538)">
      <path id="Path_2934" data-name="Path 2934" d="M561.64,633.587a3.518,3.518,0,0,1-3.483,3.551H433.49a3.518,3.518,0,0,1-3.483-3.551h0a3.517,3.517,0,0,1,3.483-3.55H558.157a3.517,3.517,0,0,1,3.483,3.55Z" transform="translate(-430.007 -630.037)" fill="#2a363d"/>
    </g>
    <g id="Group_16" data-name="Group 16" transform="translate(316.463 151.722)">
      <path id="Path_2935" data-name="Path 2935" d="M561.64,865.829a3.517,3.517,0,0,1-3.483,3.551H433.49a3.517,3.517,0,0,1-3.483-3.551h0a3.517,3.517,0,0,1,3.483-3.551H558.157a3.517,3.517,0,0,1,3.483,3.551Z" transform="translate(-430.007 -862.279)" fill="#2a363d"/>
    </g>
    <g id="Group_17" data-name="Group 17" transform="translate(329.663 170.791)">
      <path id="Path_2936" data-name="Path 2936" d="M717.073,1123.342a3.332,3.332,0,0,1-3.3,3.364H615.14a3.332,3.332,0,0,1-3.3-3.364h0a3.332,3.332,0,0,1,3.3-3.363h98.633a3.332,3.332,0,0,1,3.3,3.363Z" transform="translate(-611.84 -1119.979)" fill="#2a363d"/>
    </g>
    <g id="Group_18" data-name="Group 18" transform="translate(329.663 187.781)">
      <path id="Path_2937" data-name="Path 2937" d="M717.073,1352.956a3.332,3.332,0,0,1-3.3,3.364H615.14a3.332,3.332,0,0,1-3.3-3.364h0a3.332,3.332,0,0,1,3.3-3.364h98.633a3.332,3.332,0,0,1,3.3,3.364Z" transform="translate(-611.84 -1349.593)" fill="#2a363d"/>
    </g>
    <g id="Group_19" data-name="Group 19" transform="translate(316.463 212.463)">
      <path id="Path_2938" data-name="Path 2938" d="M474.374,1686.24a2.917,2.917,0,0,1-2.715,3.083H432.722a2.917,2.917,0,0,1-2.715-3.083h0a2.917,2.917,0,0,1,2.715-3.083h38.937a2.917,2.917,0,0,1,2.715,3.083Z" transform="translate(-430.007 -1683.157)" fill="#2a363d"/>
    </g>
    <g id="Group_20" data-name="Group 20" transform="translate(403.729 212.463)">
      <path id="Path_2939" data-name="Path 2939" d="M1676.5,1686.24a2.917,2.917,0,0,1-2.715,3.083h-38.937a2.917,2.917,0,0,1-2.715-3.083h0a2.917,2.917,0,0,1,2.715-3.083h38.937a2.917,2.917,0,0,1,2.715,3.083Z" transform="translate(-1632.129 -1683.157)" fill="#2a363d"/>
    </g>
    <g id="Group_23" data-name="Group 23" transform="translate(374.267 231.32)">
      <g id="Group_21" data-name="Group 21" transform="translate(0.876 0.893)">
        <path id="Path_2940" data-name="Path 2940" d="M1274.841,1990.466l7.034,28.087,6.327-7.02,8.859,3.785-7.205-28.759Z" transform="translate(-1272.192 -1983.859)" fill="#e5e5e5"/>
        <path id="Path_2941" data-name="Path 2941" d="M1246.921,1989.285l-8.568-34.209,19.235-5.005,8.826,35.23-11.483-4.906Zm-3.27-31.005,5.5,21.966,4.642-5.151,6.236,2.665-5.584-22.288Z" transform="translate(-1238.353 -1950.071)" fill="#1a1818"/>
      </g>
      <g id="Group_22" data-name="Group 22" transform="translate(0)">
        <path id="Path_2942" data-name="Path 2942" d="M1270.313,2008.871l-7.542-30.112,16.411-4.271,7.741,30.9-9.728-4.157Zm-5.789-29.052,6.527,26.062,5.769-6.4,7.992,3.415-6.669-26.619Z" transform="translate(-1260.122 -1971.789)" fill="#fff"/>
        <path id="Path_2943" data-name="Path 2943" d="M1235.358,1979.6l-9.075-36.233,20.631-5.368,9.363,37.371-12.351-5.278Zm-2.025-31.97,4.994,19.941,4.085-4.533,5.368,2.294-5.048-20.148Z" transform="translate(-1226.283 -1938.002)" fill="#2a363d"/>
      </g>
    </g>
    <g id="Group_26" data-name="Group 26" transform="translate(359.351 229.396)">
      <g id="Group_24" data-name="Group 24" transform="translate(1.127 0.939)">
        <path id="Path_2944" data-name="Path 2944" d="M1092.856,1963.052l-9.6,27.287,9.1-2.207,5.262,8.193,9.826-27.941Z" transform="translate(-1079.85 -1960.213)" fill="#e5e5e5"/>
        <path id="Path_2945" data-name="Path 2945" d="M1054.667,1965.744l-6.82-10.619-11.521,2.795,11.69-33.234,18.687,6.83Zm-4.851-15.66,3.7,5.766,7.615-21.654-10.487-3.833-7.506,21.34Z" transform="translate(-1036.326 -1924.686)" fill="#1a1818"/>
      </g>
      <g id="Group_25" data-name="Group 25" transform="translate(0)">
        <path id="Path_2946" data-name="Path 2946" d="M1083.41,1986.211l-5.777-8.995-9.9,2.4,10.29-29.254,15.944,5.827Zm-5.126-10.663,4.746,7.39,9.095-25.862-13.231-4.836-8.907,25.32Z" transform="translate(-1064.326 -1947.524)" fill="#fff"/>
        <path id="Path_2947" data-name="Path 2947" d="M1040.458,1955.631l-7.335-11.421L1020.8,1947.2l12.382-35.2,20.043,7.325Zm-4.716-18.13,3.188,4.964,6.884-19.575-9.131-3.337-6.815,19.373Z" transform="translate(-1020.801 -1911.998)" fill="#2a363d"/>
      </g>
    </g>
    <g id="Group_28" data-name="Group 28" transform="translate(359.273 199.526)">
      <g id="Group_27" data-name="Group 27">
        <path id="Path_2948" data-name="Path 2948" d="M1090.183,1553.244c-.678-2.129-.052-4.958-1.318-6.729-1.275-1.791-4.117-2.051-5.874-3.354-1.74-1.29-2.852-3.972-4.941-4.663-2.016-.667-4.454.813-6.689.813s-4.672-1.48-6.687-.813c-2.09.691-3.2,3.373-4.942,4.663-1.756,1.3-4.6,1.563-5.876,3.354-1.266,1.771-.639,4.6-1.317,6.729-.656,2.054-2.814,3.956-2.814,6.233s2.158,4.179,2.814,6.234c.677,2.129.051,4.957,1.317,6.73,1.277,1.791,4.12,2.049,5.876,3.352,1.739,1.291,2.852,3.972,4.94,4.663,2.017.668,4.456-.812,6.689-.812s4.673,1.48,6.688.812c2.09-.691,3.2-3.372,4.942-4.662,1.757-1.3,4.6-1.563,5.874-3.354,1.266-1.773.641-4.6,1.318-6.73.655-2.056,2.814-3.957,2.814-6.234S1090.838,1555.3,1090.183,1553.244Z" transform="translate(-1047.548 -1536.105)" fill="#fff"/>
        <path id="Path_2949" data-name="Path 2949" d="M1049.075,1555.069a12.753,12.753,0,0,1-3.259-.556,6.249,6.249,0,0,0-4.553,0,12.749,12.749,0,0,1-3.261.556,5.8,5.8,0,0,1-1.825-.281,9.025,9.025,0,0,1-4.046-3.348,5.94,5.94,0,0,0-3.519-2.6,8.965,8.965,0,0,1-4.339-2.869,9.265,9.265,0,0,1-1.334-5.066,10.28,10.28,0,0,0-.293-2.285,9.671,9.671,0,0,0-1.036-1.913,7.59,7.59,0,0,1,0-10.012,9.684,9.684,0,0,0,1.036-1.914,10.3,10.3,0,0,0,.292-2.283,9.258,9.258,0,0,1,1.335-5.066,8.965,8.965,0,0,1,4.339-2.869,5.945,5.945,0,0,0,3.518-2.6,9.021,9.021,0,0,1,4.049-3.348,5.784,5.784,0,0,1,1.823-.281,12.738,12.738,0,0,1,3.26.556,6.251,6.251,0,0,0,4.553,0,12.74,12.74,0,0,1,3.26-.556,5.786,5.786,0,0,1,1.824.281,9.019,9.019,0,0,1,4.046,3.346,5.949,5.949,0,0,0,3.519,2.605,8.959,8.959,0,0,1,4.34,2.872,9.261,9.261,0,0,1,1.334,5.063,10.287,10.287,0,0,0,.293,2.285,9.68,9.68,0,0,0,1.035,1.914,7.588,7.588,0,0,1,0,10.009,9.638,9.638,0,0,0-1.036,1.915,10.313,10.313,0,0,0-.293,2.285,9.265,9.265,0,0,1-1.336,5.066,8.952,8.952,0,0,1-4.336,2.868,5.955,5.955,0,0,0-3.52,2.606,9.022,9.022,0,0,1-4.048,3.347A5.787,5.787,0,0,1,1049.075,1555.069Zm-5.536-5.425a13.279,13.279,0,0,1,3.366.57,9.624,9.624,0,0,0,2.171.415,1.523,1.523,0,0,0,.478-.064,6.049,6.049,0,0,0,2.023-1.936,9.983,9.983,0,0,1,5.3-3.927,6,6,0,0,0,2.4-1.346,6.257,6.257,0,0,0,.512-2.729,13.839,13.839,0,0,1,.5-3.381,12.878,12.878,0,0,1,1.515-2.946,3.439,3.439,0,0,0,0-5.207,12.877,12.877,0,0,1-1.515-2.944,13.836,13.836,0,0,1-.5-3.382,6.27,6.27,0,0,0-.509-2.726,6,6,0,0,0-2.408-1.35,13.026,13.026,0,0,1-2.987-1.516,12.9,12.9,0,0,1-2.312-2.411,6.054,6.054,0,0,0-2.02-1.935,1.516,1.516,0,0,0-.479-.064,9.619,9.619,0,0,0-2.172.416,10.217,10.217,0,0,1-6.73,0,9.617,9.617,0,0,0-2.172-.416,1.523,1.523,0,0,0-.478.064,6.052,6.052,0,0,0-2.023,1.937,9.975,9.975,0,0,1-5.3,3.926,6.011,6.011,0,0,0-2.408,1.349,6.252,6.252,0,0,0-.51,2.726,13.84,13.84,0,0,1-.5,3.382,12.92,12.92,0,0,1-1.515,2.944,3.441,3.441,0,0,0,0,5.211,12.908,12.908,0,0,1,1.515,2.942,13.836,13.836,0,0,1,.5,3.384,6.266,6.266,0,0,0,.509,2.726,6,6,0,0,0,2.408,1.348,9.968,9.968,0,0,1,5.3,3.927,6.06,6.06,0,0,0,2.02,1.936,1.53,1.53,0,0,0,.48.064,9.638,9.638,0,0,0,2.173-.415A13.245,13.245,0,0,1,1043.539,1549.644Z" transform="translate(-1019.726 -1508.325)" fill="#2a363d"/>
      </g>
    </g>
    <g id="Group_30" data-name="Group 30" transform="translate(367.703 206.91)">
      <g id="Group_29" data-name="Group 29">
        <path id="Path_2950" data-name="Path 2950" d="M1192.877,1651.887a13.51,13.51,0,1,1-13.508-13.768A13.64,13.64,0,0,1,1192.877,1651.887Z" transform="translate(-1163.684 -1635.899)" fill="#e5e5e5"/>
        <path id="Path_2951" data-name="Path 2951" d="M1151.547,1640.095a15.434,15.434,0,0,1-11.091-4.683,16.207,16.207,0,0,1,0-22.611,15.476,15.476,0,0,1,22.182,0,16.207,16.207,0,0,1,0,22.611A15.435,15.435,0,0,1,1151.547,1640.095Zm0-27.536a11.551,11.551,0,1,0,11.33,11.548A11.454,11.454,0,0,0,1151.547,1612.559Z" transform="translate(-1135.862 -1608.119)" fill="#2a363d"/>
      </g>
    </g>
  </g>
</svg>
