<svg xmlns="http://www.w3.org/2000/svg" xmlns:xlink="http://www.w3.org/1999/xlink" width="181.44" height="185.44" viewBox="0 0 181.44 185.44">
  <defs>
    <clipPath id="clip-path">
      <rect x="51" y="72" width="181.44" height="185.44" fill="none"/>
    </clipPath>
  </defs>
  <g id="fooding" transform="translate(-51 -72)" clip-path="url(#clip-path)" style="isolation: isolate">
    <g id="Group_13" data-name="Group 13" transform="translate(-132.682 -48.06)">
      <path id="Path_2930" data-name="Path 2930" d="M81.351-1.3A82.069,82.069,0,0,1,163.66,81.01a82.892,82.892,0,0,1-82.65,82.65A82.069,82.069,0,0,1-1.3,81.351,82.892,82.892,0,0,1,81.351-1.3Z" transform="translate(160.995 204.317) rotate(-45)" fill="#2a363d"/>
      <path id="Path_2931" data-name="Path 2931" d="M54.393-.868a54.873,54.873,0,0,1,55.033,55.033,55.423,55.423,0,0,1-55.261,55.261A54.873,54.873,0,0,1-.868,54.393,55.423,55.423,0,0,1,54.393-.868Z" transform="translate(199.039 204.317) rotate(-45)" fill="#3a4c57"/>
      <g id="Group_11" data-name="Group 11" transform="translate(284.657 151.684)">
        <path id="Path_2926" data-name="Path 2926" d="M1173.6,624.9a22.121,22.121,0,1,1-44.242,0c0-12.267,9.9-39.438,22.121-39.438S1173.6,612.635,1173.6,624.9Z" transform="translate(-1129.359 -585.464)" fill="#e5e5e5"/>
        <path id="Path_2927" data-name="Path 2927" d="M1246.963,1133.447c0,8.613-10.383,11.333-10.383,0,0-11.9,2.37-49.593,2.37-72.076,0-9.211-5.938-13.6-5.938-13.6l16.9.257s-4.639,2.576-4.639,13.116C1245.27,1085.682,1246.963,1127.421,1246.963,1133.447Z" transform="translate(-1219.65 -987.934)" fill="#e5e5e5"/>
      </g>
      <g id="Group_12" data-name="Group 12" transform="translate(236.52 140.464)">
        <path id="Path_2928" data-name="Path 2928" d="M816,1124.3c0,8.613-10.383,11.333-10.383,0,0-11.9,2.37-49.593,2.37-72.077,0-9.211-8.3-14.959-8.3-14.959h21.614s-7,4.193-7,14.732C814.309,1076.534,816,1118.272,816,1124.3Z" transform="translate(-794.049 -967.566)" fill="#e5e5e5"/>
        <path id="Path_2929" data-name="Path 2929" d="M783.468,502.524v45.557a3.385,3.385,0,1,1-6.771,0V502.524c0-5.365-7.32-4.457-7.32,0v45.557a3.386,3.386,0,1,1-6.772,0V502.524c0-4.911-6.7-5.062-6.7,0v52.811c0,9.013,5.521,16.318,12.332,16.318h9.591c6.812,0,12.332-7.3,12.332-16.318V502.524C790.165,498.217,783.468,497.311,783.468,502.524Z" transform="translate(-755.91 -498.784)" fill="#e5e5e5"/>
      </g>
    </g>
  </g>
</svg>
