<svg xmlns="http://www.w3.org/2000/svg" width="219.32" height="219.32" viewBox="0 0 219.32 219.32">
  <g id="insta" transform="translate(-1889.631 -447.021)">
    <g id="Group_52" data-name="Group 52">
      <path id="Path_3026" data-name="Path 3026" d="M109.66,0A109.66,109.66,0,1,1,0,109.66,109.66,109.66,0,0,1,109.66,0Z" transform="translate(1889.631 447.021)" fill="#ca9a14"/>
      <path id="Path_3010" data-name="Path 3010" d="M2033.33,515.2a7.538,7.538,0,1,0,7.538,7.537A7.538,7.538,0,0,0,2033.33,515.2Z" fill="#fff"/>
      <path id="Path_3011" data-name="Path 3011" d="M1999.819,524.864a31.664,31.664,0,1,0,31.664,31.664A31.7,31.7,0,0,0,1999.819,524.864Zm0,51.947a20.283,20.283,0,1,1,20.282-20.283A20.306,20.306,0,0,1,1999.819,576.811Z" fill="#fff"/>
      <path id="Path_3012" data-name="Path 3012" d="M2024.956,620.816h-51.333A38.664,38.664,0,0,1,1935,582.2V530.86a38.664,38.664,0,0,1,38.621-38.621h51.333a38.666,38.666,0,0,1,38.623,38.621V582.2A38.666,38.666,0,0,1,2024.956,620.816Zm-51.333-116.48A26.553,26.553,0,0,0,1947.1,530.86V582.2a26.553,26.553,0,0,0,26.525,26.524h51.333a26.554,26.554,0,0,0,26.526-26.524V530.86a26.554,26.554,0,0,0-26.526-26.524Z" fill="#fff"/>
    </g>
  </g>
</svg>
