<svg xmlns="http://www.w3.org/2000/svg" width="153.627" height="202.224" viewBox="0 0 153.627 202.224">
  <g id="mic" transform="matrix(0.883, -0.469, 0.469, 0.883, -1879.115, -547.273)">
    <path id="Path_2885" data-name="Path 2885" d="M1494.439,1884.514h-10.78a5.17,5.17,0,0,1-5.22-4.853l-4.788-97.447h30.8l-4.788,97.447A5.17,5.17,0,0,1,1494.439,1884.514Z" transform="translate(-69.949 -325.195)" fill="#2a363d"/>
    <path id="Path_2886" data-name="Path 2886" d="M1539.136,2403.5h-7.576l-1.835-8.623h11.247Z" transform="translate(-116.249 -833.706)" fill="#2a363d"/>
    <rect id="Rectangle_145" data-name="Rectangle 145" width="36.74" height="8.143" rx="4.072" transform="translate(1400.73 1446.47)" fill="#2a363d"/>
    <path id="Path_2887" data-name="Path 2887" d="M1419.4,1390.413h-.6c-16.493,0-29.864,13.039-29.864,29.125v.588a28.883,28.883,0,0,0,12.651,23.8h35.029a28.883,28.883,0,0,0,12.652-23.8v-.588C1449.266,1403.452,1435.895,1390.413,1419.4,1390.413Z" transform="translate(0)" fill="#2a363d"/>
    <g id="Group_6" data-name="Group 6" transform="translate(1416.186 1572.257)">
      <path id="Path_2888" data-name="Path 2888" d="M1563.168,2489.684a14.505,14.505,0,0,1-7.153-1.8c-4.586-2.544-7.787-7.6-9.514-15.016a48.569,48.569,0,0,1-1.231-9.946v-2.842h5.827v2.839a43.66,43.66,0,0,0,1.111,8.8c.931,3.949,2.849,9.1,6.694,11.232,3.62,2,8.734,1.119,15.2-2.63l2.5-1.452,2.978,4.885-2.5,1.452C1571.935,2488.188,1567.282,2489.683,1563.168,2489.684Z" transform="translate(-1545.27 -2460.083)" fill="#2a363d"/>
    </g>
    <g id="Group_7" data-name="Group 7" transform="translate(1395.256 1395.726)">
      <path id="Path_2889" data-name="Path 2889" d="M1459.341,1641.615a1.509,1.509,0,1,1,1.547-1.509A1.53,1.53,0,0,1,1459.341,1641.615Z" transform="translate(-1452.113 -1601.719)" fill="#fff"/>
      <path id="Path_2890" data-name="Path 2890" d="M1523.3,1641.615a1.509,1.509,0,1,1,1.547-1.509A1.53,1.53,0,0,1,1523.3,1641.615Z" transform="translate(-1504.919 -1601.719)" fill="#fff"/>
      <ellipse id="Ellipse_2" data-name="Ellipse 2" cx="1.547" cy="1.509" rx="1.547" ry="1.509" transform="translate(27.978 36.879)" fill="#fff"/>
      <path id="Path_2891" data-name="Path 2891" d="M1651.2,1641.615a1.509,1.509,0,1,1,1.547-1.509A1.53,1.53,0,0,1,1651.2,1641.615Z" transform="translate(-1610.528 -1601.719)" fill="#fff"/>
      <path id="Path_2892" data-name="Path 2892" d="M1426.75,1610.254a1.509,1.509,0,1,1,1.547-1.509A1.53,1.53,0,0,1,1426.75,1610.254Z" transform="translate(-1425.203 -1575.689)" fill="#fff"/>
      <path id="Path_2893" data-name="Path 2893" d="M1490.7,1610.254a1.509,1.509,0,1,1,1.547-1.509A1.53,1.53,0,0,1,1490.7,1610.254Z" transform="translate(-1478.008 -1575.689)" fill="#fff"/>
      <path id="Path_2894" data-name="Path 2894" d="M1554.656,1610.254a1.509,1.509,0,1,1,1.547-1.509A1.53,1.53,0,0,1,1554.656,1610.254Z" transform="translate(-1530.813 -1575.689)" fill="#fff"/>
      <path id="Path_2895" data-name="Path 2895" d="M1618.61,1610.254a1.509,1.509,0,1,1,1.547-1.509A1.53,1.53,0,0,1,1618.61,1610.254Z" transform="translate(-1583.618 -1575.689)" fill="#fff"/>
      <path id="Path_2896" data-name="Path 2896" d="M1682.563,1610.254a1.509,1.509,0,1,1,1.547-1.509A1.53,1.53,0,0,1,1682.563,1610.254Z" transform="translate(-1636.423 -1575.689)" fill="#fff"/>
      <path id="Path_2897" data-name="Path 2897" d="M1490.7,1671.133a1.509,1.509,0,1,1,1.547-1.509A1.53,1.53,0,0,1,1490.7,1671.133Z" transform="translate(-1478.008 -1626.219)" fill="#fff"/>
      <path id="Path_2898" data-name="Path 2898" d="M1554.656,1671.133a1.509,1.509,0,1,1,1.547-1.509A1.53,1.53,0,0,1,1554.656,1671.133Z" transform="translate(-1530.813 -1626.219)" fill="#fff"/>
      <path id="Path_2899" data-name="Path 2899" d="M1618.61,1671.133a1.509,1.509,0,1,1,1.547-1.509A1.53,1.53,0,0,1,1618.61,1671.133Z" transform="translate(-1583.618 -1626.219)" fill="#fff"/>
      <path id="Path_2900" data-name="Path 2900" d="M1459.341,1580.737a1.509,1.509,0,1,1,1.547-1.509A1.53,1.53,0,0,1,1459.341,1580.737Z" transform="translate(-1452.113 -1551.19)" fill="#fff"/>
      <path id="Path_2901" data-name="Path 2901" d="M1523.3,1580.737a1.509,1.509,0,1,1,1.547-1.509A1.53,1.53,0,0,1,1523.3,1580.737Z" transform="translate(-1504.919 -1551.19)" fill="#fff"/>
      <path id="Path_2902" data-name="Path 2902" d="M1587.248,1580.737a1.509,1.509,0,1,1,1.547-1.509A1.53,1.53,0,0,1,1587.248,1580.737Z" transform="translate(-1557.723 -1551.19)" fill="#fff"/>
      <path id="Path_2903" data-name="Path 2903" d="M1651.2,1580.737a1.509,1.509,0,1,1,1.547-1.509A1.53,1.53,0,0,1,1651.2,1580.737Z" transform="translate(-1610.528 -1551.19)" fill="#fff"/>
      <path id="Path_2904" data-name="Path 2904" d="M1426.75,1549.376a1.509,1.509,0,1,1,1.547-1.509A1.53,1.53,0,0,1,1426.75,1549.376Z" transform="translate(-1425.203 -1525.16)" fill="#fff"/>
      <path id="Path_2905" data-name="Path 2905" d="M1490.7,1549.376a1.509,1.509,0,1,1,1.547-1.509A1.53,1.53,0,0,1,1490.7,1549.376Z" transform="translate(-1478.008 -1525.16)" fill="#fff"/>
      <path id="Path_2906" data-name="Path 2906" d="M1554.656,1549.376a1.509,1.509,0,1,1,1.547-1.509A1.53,1.53,0,0,1,1554.656,1549.376Z" transform="translate(-1530.813 -1525.16)" fill="#fff"/>
      <path id="Path_2907" data-name="Path 2907" d="M1618.61,1549.376a1.509,1.509,0,1,1,1.547-1.509A1.53,1.53,0,0,1,1618.61,1549.376Z" transform="translate(-1583.618 -1525.16)" fill="#fff"/>
      <path id="Path_2908" data-name="Path 2908" d="M1682.563,1549.376a1.509,1.509,0,1,1,1.547-1.509A1.53,1.53,0,0,1,1682.563,1549.376Z" transform="translate(-1636.423 -1525.16)" fill="#fff"/>
      <path id="Path_2909" data-name="Path 2909" d="M1459.341,1519.859a1.509,1.509,0,1,1,1.547-1.509A1.53,1.53,0,0,1,1459.341,1519.859Z" transform="translate(-1452.113 -1500.661)" fill="#fff"/>
      <path id="Path_2910" data-name="Path 2910" d="M1523.3,1519.859a1.509,1.509,0,1,1,1.547-1.509A1.53,1.53,0,0,1,1523.3,1519.859Z" transform="translate(-1504.919 -1500.661)" fill="#fff"/>
      <path id="Path_2911" data-name="Path 2911" d="M1587.248,1519.859a1.509,1.509,0,1,1,1.547-1.509A1.53,1.53,0,0,1,1587.248,1519.859Z" transform="translate(-1557.723 -1500.661)" fill="#fff"/>
      <path id="Path_2912" data-name="Path 2912" d="M1651.2,1519.859a1.509,1.509,0,1,1,1.547-1.509A1.53,1.53,0,0,1,1651.2,1519.859Z" transform="translate(-1610.528 -1500.661)" fill="#fff"/>
      <path id="Path_2913" data-name="Path 2913" d="M1426.75,1488.5a1.509,1.509,0,1,1,1.547-1.509A1.53,1.53,0,0,1,1426.75,1488.5Z" transform="translate(-1425.203 -1474.632)" fill="#fff"/>
      <ellipse id="Ellipse_3" data-name="Ellipse 3" cx="1.547" cy="1.509" rx="1.547" ry="1.509" transform="translate(11.148 10.848)" fill="#fff"/>
      <ellipse id="Ellipse_4" data-name="Ellipse 4" cx="1.547" cy="1.509" rx="1.547" ry="1.509" transform="translate(22.296 10.848)" fill="#fff"/>
      <path id="Path_2914" data-name="Path 2914" d="M1618.61,1488.5a1.509,1.509,0,1,1,1.547-1.509A1.53,1.53,0,0,1,1618.61,1488.5Z" transform="translate(-1583.618 -1474.632)" fill="#fff"/>
      <path id="Path_2915" data-name="Path 2915" d="M1682.563,1488.5a1.509,1.509,0,1,1,1.547-1.509A1.53,1.53,0,0,1,1682.563,1488.5Z" transform="translate(-1636.423 -1474.632)" fill="#fff"/>
      <path id="Path_2916" data-name="Path 2916" d="M1459.341,1458.98a1.509,1.509,0,1,1,1.547-1.509A1.53,1.53,0,0,1,1459.341,1458.98Z" transform="translate(-1452.113 -1450.131)" fill="#fff"/>
      <path id="Path_2917" data-name="Path 2917" d="M1523.3,1458.98a1.509,1.509,0,1,1,1.547-1.509A1.53,1.53,0,0,1,1523.3,1458.98Z" transform="translate(-1504.919 -1450.131)" fill="#fff"/>
      <path id="Path_2923" data-name="Path 2923" d="M1.508,0A1.531,1.531,0,0,1,3.019,1.547,1.529,1.529,0,0,1,1.509,3.1,1.531,1.531,0,0,1,0,1.546,1.529,1.529,0,0,1,1.508,0Z" transform="matrix(0.045, -0.999, 0.999, 0.045, 27.911, 8.776)" fill="#fff"/>
      <path id="Path_2918" data-name="Path 2918" d="M1651.2,1458.98a1.509,1.509,0,1,1,1.547-1.509A1.53,1.53,0,0,1,1651.2,1458.98Z" transform="translate(-1610.528 -1450.131)" fill="#fff"/>
      <path id="Path_2922" data-name="Path 2922" d="M1.5-.006A1.543,1.543,0,0,1,3.013,1.546a1.514,1.514,0,0,1-1.5,1.54A1.543,1.543,0,0,1-.006,1.534,1.514,1.514,0,0,1,1.5-.006Z" transform="translate(10.934 3.245) rotate(-80.783)" fill="#fff"/>
      <path id="Path_2921" data-name="Path 2921" d="M1.487-.013A1.561,1.561,0,0,1,3.015,1.542a1.5,1.5,0,0,1-1.5,1.528A1.561,1.561,0,0,1-.014,1.515,1.5,1.5,0,0,1,1.487-.013Z" transform="translate(21.857 2.81) rotate(-67.5)" fill="#fff"/>
      <path id="Path_2919" data-name="Path 2919" d="M1618.61,1427.619a1.509,1.509,0,1,1,1.547-1.509A1.53,1.53,0,0,1,1618.61,1427.619Z" transform="translate(-1583.618 -1424.102)" fill="#fff"/>
    </g>
    <g id="Group_8" data-name="Group 8" transform="translate(1416.43 1468.427)">
      <rect id="Rectangle_146" data-name="Rectangle 146" width="5.339" height="12.944" rx="2.669" transform="translate(0 0)" fill="#fff"/>
      <rect id="Rectangle_147" data-name="Rectangle 147" width="5.339" height="12.944" rx="2.669" transform="translate(0 0)" fill="#fff"/>
      <path id="Path_2920" data-name="Path 2920" d="M1555.205,1859.86v-3.895a1.767,1.767,0,0,0-1.787-1.743h-.053a1.768,1.768,0,0,0-1.788,1.743v3.895Z" transform="translate(-1550.722 -1853.388)" fill="#2a363d"/>
    </g>
  </g>
</svg>
