<svg xmlns="http://www.w3.org/2000/svg" width="167.764" height="189.762" viewBox="0 0 167.764 189.762">
  <g id="place" transform="translate(-80.998 -50)">
    <path id="Path_2924" data-name="Path 2924" d="M164.88,277.523c-46.327,0-83.882,21.114-83.882,47.16s37.555,47.162,83.882,47.162,83.882-21.115,83.882-47.162S211.206,277.523,164.88,277.523Zm41.954,60.656c-11.162,6.275-26.061,9.733-41.954,9.733s-30.793-3.457-41.955-9.733c-11.451-6.438-15.514-13.994-15.514-18.509s4.063-12.069,15.514-18.507c11.162-6.277,26.062-9.732,41.955-9.732h.006c15.89,0,30.788,3.455,41.949,9.732,11.451,6.438,15.513,13.993,15.513,18.507S218.285,331.741,206.834,338.179Z" transform="translate(0 -132.083)" fill="#2a363d"/>
    <path id="Path_2925" data-name="Path 2925" d="M157.136,50c-27.342,0-49.509,22.859-49.509,51.058a52.527,52.527,0,0,0,1.893,13.969,38.8,38.8,0,0,0,2.876,7.906c10.153,19.169,44.74,74.19,44.74,74.19s34.588-55.022,44.741-74.191a38.927,38.927,0,0,0,2.876-7.9,52.571,52.571,0,0,0,1.892-13.969C206.645,72.859,184.479,50,157.136,50Zm0,73.54a21.532,21.532,0,0,1-17.063-8.512,22.81,22.81,0,0,1-4.738-13.969c0-12.4,9.779-22.482,21.8-22.482s21.8,10.085,21.8,22.482a22.816,22.816,0,0,1-4.736,13.969A21.535,21.535,0,0,1,157.136,123.54Z" transform="translate(8.23)" fill="#2a363d"/>
  </g>
</svg>
