<svg xmlns="http://www.w3.org/2000/svg" xmlns:xlink="http://www.w3.org/1999/xlink" width="190.483" height="171.512" viewBox="0 0 190.483 171.512">
  <defs>
    <linearGradient id="linear-gradient" x1="-4.381" y1="1.694" x2="1.131" y2="1.694" gradientUnits="objectBoundingBox">
      <stop offset="0" stop-color="#be965d"/>
      <stop offset="0.278" stop-color="#976f40"/>
      <stop offset="0.426" stop-color="#c99b61"/>
      <stop offset="0.558" stop-color="#f0bd7b"/>
      <stop offset="0.627" stop-color="#ffcb85"/>
      <stop offset="0.709" stop-color="#edbb79"/>
      <stop offset="0.869" stop-color="#c0935b"/>
      <stop offset="1" stop-color="#976f40"/>
    </linearGradient>
  </defs>
  <path id="section-fornt" d="M924.062,526.423c-.71-.086-1.094-.014-1.277-.172-10.394-8.98-22.946-11.418-36.131-11.967-.3-.012-.595-.026-.9-.04L884.7,515.3l-2.109,2.109c17.495.725,30.55,1.912,41.584,15.093,3.846,4.594,11.534,16.573,15.617,22.771-7.069-1.99-13.659-3.958-20.311-5.689-19.116-4.973-21.835-14.341-31.438-10.957a5.388,5.388,0,0,0-2.29,8.548c6.624,7.732,13.662.978,32.7,6.229,6.626,1.828,13.317,3.419,20.434,5.229-6.636,3.327-19.283,9.857-24.91,11.912-20.252,7.4-33.817-3.13-56.22-14.275-3.1-1.545-6.141-3.213-9.086-4.946L846.5,553.5c12.278,7.495,20.015,10.989,25.88,14.058,11.693,6.117,23.782,10.282,37.274,7.7.238-.045.534.21,1.191.49-3.18,3.332-12.29,10.12-22.7,19.294a10.836,10.836,0,0,1-10.331,2.665,34.035,34.035,0,0,1-10.668-4.4c-9.238-6.323-19.386-19.568-28.268-32.181l-5.467,5.468c5.453.928,10.106,4.039,12.065,9.466-2.721,1.155-5.635,1.972-8.059,3.544a5.489,5.489,0,0,1-5.924.3c-2.6-1.179-5.209-2.347-7.862-3.529L821.2,578.8h0c4.257,1.962,7.735,3.538,10.987,5.047-1.327,2.039-2.562,3.935-4.25,6.526q-7.84-1.31-15.687-2.623l-2.732,2.732c5.569.945,11.11,1.93,16.593,2.878v13.278c-5.483.948-11.024,1.933-16.593,2.878l2.732,2.732q7.845-1.316,15.687-2.623c1.688,2.591,2.923,4.487,4.25,6.526-3.252,1.51-6.73,3.085-10.987,5.047l2.428,2.428h0c2.653-1.182,5.263-2.35,7.862-3.529a5.489,5.489,0,0,1,5.924.3c2.424,1.572,5.338,2.389,8.059,3.544-1.959,5.428-6.612,8.538-12.065,9.466l5.467,5.468c8.882-12.613,19.03-25.858,28.268-32.181a34.035,34.035,0,0,1,10.668-4.4,10.836,10.836,0,0,1,10.331,2.665c10.413,9.174,19.523,15.962,22.7,19.294-.657.281-.953.535-1.191.49-13.492-2.58-25.581,1.585-37.274,7.7-5.865,3.069-13.6,6.563-25.88,14.058l2.178,2.178c2.945-1.733,5.981-3.4,9.086-4.946,22.4-11.145,35.968-21.672,56.22-14.275,5.627,2.055,18.274,8.585,24.91,11.912-7.117,1.811-13.808,3.4-20.434,5.229-19.043,5.251-26.081-1.5-32.7,6.229a5.388,5.388,0,0,0,2.29,8.548c9.6,3.385,12.322-5.984,31.438-10.957,6.652-1.731,13.242-3.7,20.311-5.689-4.083,6.2-11.771,18.177-15.617,22.771-11.034,13.181-24.089,14.368-41.584,15.093L884.7,684.7l1.055,1.055h0c.3-.014.6-.028.9-.04,13.185-.549,25.737-2.987,36.131-11.967.183-.158.567-.086,1.277-.172-.219.9-.581,2.052-1.047,3.408l5.979-5.979c7.386-18.242,11.548-23.626,20.075-27.688,4.858-2.314,7.535-3.311,10.852-3.239h0l3.527-3.527-.005,0c3.418-4.32,17.49-17.785,22.156-22.147L1000,600l-14.4-14.4c-4.666-4.362-18.738-17.827-22.156-22.147l.005,0h0l-3.527-3.527c-3.317.072-5.993-.924-10.852-3.239-8.527-4.062-12.689-9.446-20.075-27.688l-5.979-5.979C923.481,524.371,923.843,525.523,924.062,526.423Zm-52.025,73.651c-11.21,5.4-17.45,13.945-19.469,15.87-5.528,5.268-10.222,5.385-15.717.051-5.459-5.3-8.034-10.7-8.03-15.995s2.571-10.7,8.03-15.994c5.495-5.335,10.189-5.218,15.717.05,2.019,1.925,8.259,10.468,19.469,15.87-.049.024-.1.049-.144.074Zm75.594-38.025c11.338.9,11.292,2.011,24.114,14.664,20.609,20.337,17.246,14.78,24.324,21.235-8.1,0-15.545-.023-22.993.007-16.943.07-14.455-4.256-25-3.13-4.382.468-6.581,2.821-6.584,5.175s2.2,4.707,6.584,5.175c10.546,1.126,8.058-3.2,25-3.13,7.448.031,14.9.007,22.993.007-7.078,6.455-3.715.9-24.324,21.235-12.822,12.653-12.776,13.766-24.114,14.664-13.826,1.1-20.919-4.977-60.368-37.852l.115-.1-.115-.1C926.712,567.026,933.8,560.954,947.631,562.049Z" transform="translate(-809.517 -514.244)" fill="url(#linear-gradient)"/>
</svg>
