<svg xmlns="http://www.w3.org/2000/svg" width="361.756" height="42.049" viewBox="0 0 361.756 42.049">
  <g id="section-after" transform="translate(-145.388 -194.152)">
    <g id="Group_4" data-name="Group 4" transform="translate(189.241 194.152)">
      <g id="Group_2" data-name="Group 2">
        <path id="Path_2878" data-name="Path 2878" d="M160.921,202.6c.8-.853,1.557-1.751,2.4-2.555l1.3-1.154c.22-.188.428-.391.656-.564l.7-.5,1.406-.977,1.49-.793.747-.387.777-.289c.518-.188,1.033-.395,1.554-.556a19.519,19.519,0,0,1,6.335-.639,25.907,25.907,0,0,1,6.052,1.214c.988.274,1.918.688,2.876,1.03.927.41,1.873.785,2.776,1.232,1.831.857,3.607,1.8,5.366,2.762,3.547,1.928,6.964,4.1,10.361,6.219s6.772,4.193,10.231,5.978a48.257,48.257,0,0,0,10.668,4.1c.912.222,1.831.376,2.755.549.936.147,1.873.282,2.812.4,1.873.233,3.755.4,5.637.473a36.632,36.632,0,0,0,11.207-1.1h.006a.4.4,0,0,1,.467.372.509.509,0,0,1-.277.579,37.874,37.874,0,0,1-11.409,1.871c-1.921.049-3.839,0-5.754-.109-.957-.056-1.915-.131-2.869-.214-.961-.12-1.933-.222-2.894-.387a49.109,49.109,0,0,1-11.261-3.528c-3.643-1.6-7.178-3.494-10.665-5.4s-6.937-3.814-10.436-5.448a58.2,58.2,0,0,0-10.562-4.069,22,22,0,0,0-5.224-.71,15.9,15.9,0,0,0-4.971.819,19.152,19.152,0,0,0-8.31,6.666l-.1.131a2.411,2.411,0,0,1-3.932.147,4.1,4.1,0,0,1-.117-4.907A3.1,3.1,0,0,1,160.921,202.6Z" transform="translate(-159.952 -194.152)" fill="#070a10"/>
        <path id="Path_2879" data-name="Path 2879" d="M179.352,202.6c.8-.853,1.554-1.751,2.394-2.555l1.3-1.154c.22-.188.428-.391.656-.564l.7-.5,1.4-.977,1.493-.793.744-.387.777-.289c.521-.188,1.033-.395,1.557-.556a19.511,19.511,0,0,1,6.335-.639,25.939,25.939,0,0,1,6.052,1.214c.988.274,1.918.688,2.875,1.03.927.41,1.87.785,2.776,1.232,1.831.857,3.607,1.8,5.366,2.762,3.547,1.928,6.964,4.1,10.358,6.219s6.772,4.193,10.234,5.978a48.233,48.233,0,0,0,10.665,4.1c.915.222,1.831.376,2.755.549.936.147,1.876.282,2.812.4,1.876.233,3.755.4,5.637.473a36.652,36.652,0,0,0,11.21-1.1h.006c.211-.06.419.109.467.372a.513.513,0,0,1-.277.579,37.908,37.908,0,0,1-11.412,1.871c-1.918.049-3.839,0-5.751-.109-.958-.056-1.915-.131-2.869-.214-.961-.12-1.933-.222-2.894-.387a49.178,49.178,0,0,1-11.264-3.528c-3.64-1.6-7.178-3.494-10.662-5.4s-6.937-3.814-10.436-5.448a58.289,58.289,0,0,0-10.562-4.069,22.008,22.008,0,0,0-5.227-.71,15.9,15.9,0,0,0-4.968.819,19.118,19.118,0,0,0-8.31,6.666l-.1.131a2.414,2.414,0,0,1-3.935.147,4.1,4.1,0,0,1-.117-4.907C179.208,202.768,179.28,202.682,179.352,202.6Z" transform="translate(-122.891 -194.152)" fill="#070a10"/>
        <path id="Path_2880" data-name="Path 2880" d="M197.782,202.607c.8-.857,1.554-1.755,2.394-2.559l1.3-1.154c.22-.188.427-.391.656-.564l.7-.5,1.4-.977,1.49-.793.747-.387.777-.289c.518-.188,1.033-.395,1.554-.556a19.537,19.537,0,0,1,6.338-.639,25.913,25.913,0,0,1,6.049,1.214c.988.274,1.921.688,2.876,1.03.93.41,1.873.785,2.779,1.232,1.831.857,3.607,1.8,5.363,2.762,3.55,1.928,6.967,4.1,10.361,6.219s6.772,4.193,10.231,5.978a48.312,48.312,0,0,0,10.668,4.1c.912.222,1.831.376,2.755.549.936.147,1.873.282,2.812.4,1.876.233,3.755.4,5.637.473a36.652,36.652,0,0,0,11.21-1.1h0a.4.4,0,0,1,.47.372.51.51,0,0,1-.28.579,37.874,37.874,0,0,1-11.409,1.871c-1.918.049-3.839,0-5.754-.109-.958-.056-1.912-.131-2.866-.214-.96-.12-1.936-.222-2.9-.387a49.154,49.154,0,0,1-11.261-3.528c-3.64-1.6-7.178-3.494-10.662-5.4s-6.937-3.814-10.439-5.448a58.12,58.12,0,0,0-10.562-4.069A21.983,21.983,0,0,0,215,200a15.9,15.9,0,0,0-4.968.819,19.118,19.118,0,0,0-8.31,6.666l-.1.131a2.414,2.414,0,0,1-3.935.147,4.1,4.1,0,0,1-.117-4.907A3.031,3.031,0,0,1,197.782,202.607Z" transform="translate(-85.829 -194.152)" fill="#070a10"/>
      </g>
      <g id="Group_3" data-name="Group 3" transform="translate(52.972 15.779)">
        <path id="Path_2881" data-name="Path 2881" d="M182.452,210.749a19.091,19.091,0,0,0,8.31,6.666,15.8,15.8,0,0,0,4.971.819,21.811,21.811,0,0,0,5.224-.71,58.179,58.179,0,0,0,10.562-4.065c3.5-1.634,6.946-3.551,10.436-5.448s7.022-3.8,10.662-5.4a49.191,49.191,0,0,1,11.264-3.532c.961-.165,1.933-.267,2.894-.383.954-.086,1.912-.162,2.869-.214,1.915-.113,3.833-.162,5.751-.109a37.988,37.988,0,0,1,11.412,1.867.519.519,0,0,1,.274.6.4.4,0,0,1-.464.346h-.006a36.658,36.658,0,0,0-11.21-1.1c-1.879.075-3.761.244-5.637.477-.936.113-1.873.252-2.809.395-.927.177-1.843.331-2.758.549a48.236,48.236,0,0,0-10.665,4.1c-3.463,1.785-6.841,3.855-10.234,5.978s-6.427,3.974-10.358,6.219a40.182,40.182,0,0,1-5.366,2.762c-.906.447-1.849.827-2.776,1.232-.957.342-1.888.755-2.875,1.03a26.132,26.132,0,0,1-6.052,1.217,19.623,19.623,0,0,1-6.335-.639c-.521-.165-1.036-.368-1.557-.556l-.777-.293-.744-.387-1.49-.793-1.406-.977-.7-.5c-.229-.173-.437-.376-.656-.564l-1.3-1.154c-.837-.8-1.593-1.7-2.394-2.555a4.1,4.1,0,0,1-.3-4.9,2.417,2.417,0,0,1,3.923-.372,3.014,3.014,0,0,1,.211.248Z" transform="translate(-177.545 -198.351)" fill="#cfa166"/>
        <path id="Path_2882" data-name="Path 2882" d="M200.883,210.749a19.091,19.091,0,0,0,8.31,6.666,15.791,15.791,0,0,0,4.968.819,21.857,21.857,0,0,0,5.227-.71,58.152,58.152,0,0,0,10.559-4.065c3.5-1.634,6.949-3.551,10.439-5.448s7.022-3.8,10.662-5.4a49.166,49.166,0,0,1,11.261-3.532c.96-.165,1.936-.267,2.9-.383.954-.086,1.909-.162,2.866-.214,1.915-.113,3.833-.162,5.754-.109a37.984,37.984,0,0,1,11.409,1.867.516.516,0,0,1,.274.6.391.391,0,0,1-.461.346h-.006a36.657,36.657,0,0,0-11.21-1.1c-1.882.075-3.761.244-5.637.477-.939.113-1.876.252-2.812.395-.924.177-1.843.331-2.755.549a48.318,48.318,0,0,0-10.668,4.1c-3.46,1.785-6.838,3.855-10.231,5.978s-6.811,4.291-10.361,6.219c-1.758.958-3.532,1.9-5.363,2.762-.906.447-1.849.827-2.779,1.232-.954.342-1.888.755-2.875,1.03a26.067,26.067,0,0,1-6.052,1.217,19.631,19.631,0,0,1-6.335-.639c-.521-.165-1.036-.372-1.554-.556l-.777-.293-.747-.387-1.49-.793-1.4-.977-.7-.5c-.229-.173-.437-.376-.656-.564l-1.3-1.154c-.84-.8-1.6-1.7-2.394-2.555a4.093,4.093,0,0,1-.3-4.9,2.417,2.417,0,0,1,3.923-.372,3.007,3.007,0,0,1,.211.248Z" transform="translate(-140.484 -198.351)" fill="#cfa166"/>
        <path id="Path_2883" data-name="Path 2883" d="M219.224,210.365a20.594,20.594,0,0,0,6.967,6.072,14.531,14.531,0,0,0,4.062,1.326,16.639,16.639,0,0,0,4.306.1,28.447,28.447,0,0,0,8.777-2.649c1.451-.669,2.894-1.432,4.324-2.251l4.423-2.533a112.388,112.388,0,0,1,18.448-8.676,61.216,61.216,0,0,1,9.768-2.412,76.8,76.8,0,0,1,9.855-.808c6.543-.147,13,.094,19.475.188l19.418.372,38.832.744a.457.457,0,0,1,.388.5.451.451,0,0,1-.388.481l-38.832.744-19.418.372c-6.471.15-12.959.162-19.358.552a74.559,74.559,0,0,0-9.491,1.142,58.628,58.628,0,0,0-9.2,2.641,111.152,111.152,0,0,0-17.638,9.089l-4.339,2.69c-1.487.917-3.008,1.792-4.574,2.585a32.686,32.686,0,0,1-9.969,3.382,20.633,20.633,0,0,1-5.384.075,18.539,18.539,0,0,1-5.344-1.529,25.563,25.563,0,0,1-9.039-7.316l-.006,0a4.1,4.1,0,0,1-.042-4.9,2.407,2.407,0,0,1,3.926-.053Z" transform="translate(-103.335 -197.967)" fill="#cfa166"/>
      </g>
    </g>
    <g id="Group_5" data-name="Group 5" transform="translate(145.388 216.93)">
      <path id="Path_2884" data-name="Path 2884" d="M232.694,204.37H147.053a2.129,2.129,0,0,1,0-4.156h85.641a2.129,2.129,0,0,1,0,4.156Z" transform="translate(-145.388 -200.214)" fill="#cfa166"/>
    </g>
  </g>
</svg>
