<svg xmlns="http://www.w3.org/2000/svg" width="206.209" height="169.511" viewBox="0 0 206.209 169.511">
  <path id="tent" d="M1.948,17.58C30.992,16.437,77.33,7.861,103.073,0,128.816,7.861,175.154,16.437,204.2,17.58V29.729h-1.848l3.96,139.782c-28.78,0-29.7-49.6-23.367-72.321.528-1.858.66-3-1.452-3.287C153.5,90.33,118.255,63.031,105.449,35.589c-.66-1.286-1.452-2-2.244-2s-1.584.715-2.244,2C88.155,63.031,52.907,90.33,24.919,93.9c-2.112.286-1.98,1.429-1.452,3.287C29.8,120.059,28.88,169.511.1,169.511L4.06,29.729H1.948Z" transform="translate(-0.1)" fill="#2a363d" fill-rule="evenodd"/>
</svg>
