<svg xmlns="http://www.w3.org/2000/svg" width="219.321" height="219.321" viewBox="0 0 219.321 219.321">
  <g id="tweeter" transform="translate(-2208.261 -447.021)">
    <circle id="Ellipse_18" data-name="Ellipse 18" cx="109.66" cy="109.66" r="109.66" transform="translate(2208.261 447.021)" fill="#ca9a14"/>
    <path id="Path_3006" data-name="Path 3006" d="M2378.51,519.107a49.343,49.343,0,0,1-12.095,3.449c1.945-.327,4.8-3.848,5.947-5.273a22.155,22.155,0,0,0,4.015-7.32c.1-.209.182-.471-.027-.63a.69.69,0,0,0-.641.054,61.685,61.685,0,0,1-14.341,5.487.959.959,0,0,1-.989-.261,11.649,11.649,0,0,0-1.253-1.282,25.359,25.359,0,0,0-6.948-4.256,24.165,24.165,0,0,0-10.653-1.716,25.454,25.454,0,0,0-10.109,2.855,26.031,26.031,0,0,0-8.154,6.66,25.051,25.051,0,0,0-4.87,9.754,26.419,26.419,0,0,0-.258,10.3c.078.575.027.653-.5.575-19.7-2.931-36.022-9.978-49.276-25.081-.575-.656-.887-.656-1.359.05-5.8,8.693-2.986,22.66,4.259,29.524.966.915,1.959,1.83,3.029,2.665a25.144,25.144,0,0,1-9.509-2.665c-.575-.364-.864-.155-.915.5a15.058,15.058,0,0,0,.156,2.823,25.27,25.27,0,0,0,15.573,20.143,14.771,14.771,0,0,0,3.16.966c-1.9.418-3.866.716-9.326.289-.68-.131-.939.209-.68.861,4.1,11.185,12.962,14.513,19.595,16.409.888.155,1.776.155,2.667.364-.054.08-.107.08-.158.157-2.2,3.355-9.829,5.852-13.381,7.093a47.946,47.946,0,0,1-20.324,2.6c-1.093-.161-1.322-.149-1.618,0-.3.185-.039.446.312.73,1.386.915,2.8,1.725,4.233,2.509a67.044,67.044,0,0,0,13.586,5.434c24.415,6.743,51.916,1.789,70.248-16.425,14.4-14.3,19.441-34.028,19.441-53.778,0-.773.914-1.2,1.456-1.608a47.484,47.484,0,0,0,9.56-9.942,3.018,3.018,0,0,0,.633-1.905v-.1C2379,518.792,2379,518.886,2378.51,519.107Z" fill="#fff"/>
  </g>
</svg>
