<svg xmlns="http://www.w3.org/2000/svg" xmlns:xlink="http://www.w3.org/1999/xlink" width="223.296" height="220.296" viewBox="0 0 223.296 220.296">
  <defs>
    <clipPath id="clip-path">
      <rect x="32" y="33" width="223.296" height="220.296" fill="none"/>
    </clipPath>
  </defs>
  <g id="wp" transform="translate(-32 -33)" clip-path="url(#clip-path)" style="isolation: isolate">
    <g id="Group_50" data-name="Group 50" transform="translate(-2173.774 -731.164)">
      <circle id="Ellipse_19" data-name="Ellipse 19" cx="109.661" cy="109.661" r="109.661" transform="translate(2173.774 818.108) rotate(-23.355)" fill="#ca9a14"/>
      <path id="Path_3007" data-name="Path 3007" d="M2258.674,937.367l9.143-34.113a63.134,63.134,0,1,1,25.146,24.927Zm35.994-21.97,2.159,1.288a51.255,51.255,0,1,0-17.534-17.376l1.324,2.175-5.1,19.047Z" fill="#fff"/>
      <path id="Path_3008" data-name="Path 3008" d="M2346.335,881.585c-2.593-1.552-5.966-3.283-9.02-2.033-2.343.959-3.839,4.627-5.357,6.5a2.247,2.247,0,0,1-2.906.631,40.859,40.859,0,0,1-20.389-17.466,2.5,2.5,0,0,1,.315-3.415c1.467-1.726,3.308-3.687,3.705-6.014s-.7-5.046-1.656-7.117c-1.23-2.648-2.6-6.423-5.255-7.92-2.439-1.377-5.649-.606-7.82,1.162a15.874,15.874,0,0,0-5.5,12.576,17.873,17.873,0,0,0,.5,3.991,33.065,33.065,0,0,0,3.829,8.823,69.644,69.644,0,0,0,4,6.078,61.685,61.685,0,0,0,17.334,16.1,52.515,52.515,0,0,0,10.811,5.14c4.235,1.4,8.009,2.856,12.583,1.988,4.789-.909,9.51-3.873,11.411-8.488a7.379,7.379,0,0,0,.529-4.331C2352.787,884.8,2348.749,883.028,2346.335,881.585Z" fill="#fff" fill-rule="evenodd"/>
    </g>
  </g>
</svg>
