<svg xmlns="http://www.w3.org/2000/svg" width="219.321" height="219.321" viewBox="0 0 219.321 219.321">
  <g id="youtube" transform="translate(-1889.631 -765.651)">
    <circle id="Ellipse_20" data-name="Ellipse 20" cx="109.66" cy="109.66" r="109.66" transform="translate(1889.631 765.651)" fill="#ca9a14"/>
    <path id="Path_3009" data-name="Path 3009" d="M2058,859.366a26.333,26.333,0,0,0-26.332-26.333h-67.335A26.333,26.333,0,0,0,1938,859.366V890.7a26.333,26.333,0,0,0,26.333,26.332h67.335A26.332,26.332,0,0,0,2058,890.7Zm-39.6,18.015-30.195,14.939c-1.183.64-5.206-.217-5.206-1.563V860.093c0-1.363,4.056-2.219,5.24-1.544l28.9,15.725C2018.356,874.964,2019.628,876.718,2018.4,877.381Z" fill="#fff"/>
  </g>
</svg>
